<?xml version="1.0" encoding="utf-8"?>
<!-- Generator: Adobe Illustrator 26.0.2, SVG Export Plug-In . SVG Version: 6.00 Build 0)  -->
<svg version="1.1"
	 id="svg12" xmlns:inkscape="http://www.inkscape.org/namespaces/inkscape" xmlns:sodipodi="http://sodipodi.sourceforge.net/DTD/sodipodi-0.dtd" xmlns:svg="http://www.w3.org/2000/svg"
	 xmlns="http://www.w3.org/2000/svg" xmlns:xlink="http://www.w3.org/1999/xlink" x="0px" y="0px" viewBox="0 0 90 30"
	 style="enable-background:new 0 0 90 30;" xml:space="preserve">
<style type="text/css">
	.st0{enable-background:new    ;}
</style>
<sodipodi:namedview  bordercolor="#000000" borderopacity="0.25" id="namedview14" inkscape:deskcolor="#d1d1d1" inkscape:pagecheckerboard="0" inkscape:pageopacity="0.0" inkscape:showpageshadow="2" pagecolor="#ffffff">
	</sodipodi:namedview>
<g class="st0">
	<path d="M7.4,20.6c-0.6,0-1.3-0.1-2.1-0.2S4,20.1,3.5,20c-0.5-0.2-0.8-0.4-0.8-0.6c0-0.3,0-0.7,0.1-1.3c0-0.4,0.1-0.8,0.2-1.2
		c0-0.2,0.1-0.3,0.2-0.4s0.2-0.1,0.3,0c0.2,0.1,0.7,0.2,1.3,0.4s1,0.2,1.4,0.2c0.3,0,0.4-0.1,0.4-0.3c0-0.1,0-0.2-0.1-0.2
		s-0.1-0.1-0.3-0.1c-1.2-0.3-2-0.7-2.5-1.1S3,14.2,3,13.4c0-1,0.4-1.8,1.1-2.3s1.7-0.8,3-0.8c0.8,0,1.5,0.1,2.2,0.2s1.3,0.3,1.7,0.5
		c0.1,0.1,0.2,0.3,0.3,0.6c0.1,0.5,0.1,1.2-0.1,1.9c0,0.2-0.1,0.3-0.2,0.4s-0.2,0.1-0.3,0.1c0,0-0.2-0.1-0.3-0.1s-0.4-0.2-0.5-0.2
		s-0.3-0.1-0.6-0.2S9,13.4,8.8,13.4c-0.4,0-0.6,0.1-0.6,0.4c0,0.1,0.1,0.3,0.2,0.3s0.4,0.2,0.7,0.2c0.1,0,0.1,0,0.1,0
		c1.9,0.5,2.8,1.5,2.8,2.9c0,1-0.4,1.8-1.3,2.4S8.8,20.6,7.4,20.6L7.4,20.6z"/>
	<path d="M15.4,20.6c-0.8,0-1.4-0.2-1.8-0.5s-0.6-0.9-0.7-1.8c-0.2-2-0.2-3.4-0.2-4.3c0-0.3,0-0.4,0.1-0.5s0.1-0.1,0.2-0.1
		c0.5,0,1,0,1.6,0c0.8,0,1.4,0,1.8,0.1c0.1,0,0.2,0,0.2,0.1s0.1,0.1,0.1,0.2c0,0.9,0,1.6,0,1.9s0,0.7,0,1.3c0,0.4,0.1,0.5,0.4,0.5
		c0.1,0,0.2,0,0.2-0.1s0.1-0.2,0.1-0.4c0-0.7-0.1-1.7-0.1-3.1c0-0.2,0-0.3,0.1-0.3s0.1-0.1,0.3-0.1c0.6-0.1,1.2-0.1,1.7-0.1
		c1,0,1.5,0,1.6,0c0.1,0,0.2,0.1,0.2,0.3c0,0.4,0.1,1.3,0.1,2.9s0.1,2.6,0.1,3c0,0.3,0,0.5-0.1,0.6s-0.2,0.1-0.3,0.2
		c-0.3,0-0.7,0.1-1.3,0.1c-0.6,0-1.3,0-2,0c-0.2,0-0.3-0.2-0.3-0.6c-0.1,0.2-0.2,0.3-0.3,0.4s-0.3,0.2-0.5,0.3S15.8,20.5,15.4,20.6
		L15.4,20.6z"/>
	<path d="M33.5,20.4c-0.8,0-1.4,0-1.8,0c-0.5,0-0.9,0-1.3-0.1c-0.1,0-0.2,0-0.2-0.1s0-0.2,0-0.4c0-0.2,0-0.6,0-1.3s0-1.2,0-1.5
		c0-0.3-0.1-0.4-0.3-0.4c0,0-0.1,0-0.1,0s-0.1,0-0.1,0s0,0,0,0.1s0,0.1,0,0.1V17v0.1v2.8c0,0.3-0.1,0.4-0.3,0.4
		c-0.7,0.1-1.3,0.1-1.6,0.1c-0.6,0-1,0-1.3-0.1c-0.1,0-0.2-0.1-0.3-0.1s-0.1-0.2-0.1-0.3c0-1.7,0-2.7,0-3c0-0.2-0.1-0.3-0.2-0.3
		c-0.1,0-0.2,0-0.2,0.1s0,0.1-0.1,0.2c0,0.2,0,0.7-0.1,1.6s-0.1,1.4-0.1,1.5c0,0.2-0.1,0.3-0.3,0.3c-0.3,0.1-0.8,0.1-1.4,0.1
		c-0.7,0-1.2,0-1.4-0.1c-0.1,0-0.1,0-0.1-0.1s0-0.1,0-0.3c0-3.1,0-5.3,0.1-6.4c0-0.1,0.1-0.1,0.2-0.2c0.3,0,0.8-0.1,1.5-0.1
		c0.5,0,1,0,1.4,0.1c0.1,0,0.1,0.2,0.2,0.4c0,0.4,0.1,0.7,0.1,0.7c0,0,0.1-0.1,0.2-0.2s0.2-0.3,0.3-0.4s0.3-0.3,0.5-0.4
		s0.5-0.2,0.8-0.2s0.6,0.1,0.8,0.2s0.4,0.2,0.5,0.4s0.2,0.3,0.3,0.4s0.1,0.2,0.1,0.2s0.1,0,0.1-0.1s0.1-0.2,0.2-0.3s0.2-0.2,0.4-0.3
		s0.3-0.2,0.6-0.3s0.5-0.1,0.8-0.1c0.6,0,1.1,0.2,1.6,0.5s0.7,0.8,0.9,1.3c0.1,0.3,0.1,0.6,0.1,1.1s0,0.9,0.1,1.2s0,0.8,0,1.5
		s0,1.1,0,1.2C33.8,20.3,33.7,20.4,33.5,20.4L33.5,20.4z"/>
	<path d="M46,20.4c-0.8,0-1.4,0-1.8,0c-0.5,0-0.9,0-1.3-0.1c-0.1,0-0.2,0-0.2-0.1s0-0.2,0-0.4c0-0.2,0-0.6,0-1.3s0-1.2,0-1.5
		c0-0.3-0.1-0.4-0.3-0.4c0,0-0.1,0-0.1,0s-0.1,0-0.1,0s0,0,0,0.1s0,0.1,0,0.1V17v0.1v2.8c0,0.3-0.1,0.4-0.3,0.4
		c-0.7,0.1-1.3,0.1-1.6,0.1c-0.6,0-1,0-1.3-0.1c-0.1,0-0.2-0.1-0.3-0.1s-0.1-0.2-0.1-0.3c0-1.7,0-2.7,0-3c0-0.2-0.1-0.3-0.2-0.3
		c-0.1,0-0.2,0-0.2,0.1s0,0.1-0.1,0.2c0,0.2,0,0.7-0.1,1.6s-0.1,1.4-0.1,1.5c0,0.2-0.1,0.3-0.3,0.3c-0.3,0.1-0.8,0.1-1.4,0.1
		c-0.7,0-1.2,0-1.4-0.1c-0.1,0-0.1,0-0.1-0.1s0-0.1,0-0.3c0-3.1,0-5.3,0.1-6.4c0-0.1,0.1-0.1,0.2-0.2c0.3,0,0.8-0.1,1.5-0.1
		c0.5,0,1,0,1.4,0.1c0.1,0,0.1,0.2,0.2,0.4c0,0.4,0.1,0.7,0.1,0.7c0,0,0.1-0.1,0.2-0.2s0.2-0.3,0.3-0.4s0.3-0.3,0.5-0.4
		s0.5-0.2,0.8-0.2s0.6,0.1,0.8,0.2s0.4,0.2,0.5,0.4s0.2,0.3,0.3,0.4s0.1,0.2,0.1,0.2s0.1,0,0.1-0.1s0.1-0.2,0.2-0.3s0.2-0.2,0.4-0.3
		s0.3-0.2,0.6-0.3s0.5-0.1,0.8-0.1c0.6,0,1.1,0.2,1.6,0.5s0.7,0.8,0.9,1.3c0.1,0.3,0.1,0.6,0.1,1.1s0,0.9,0.1,1.2s0,0.8,0,1.5
		s0,1.1,0,1.2C46.3,20.3,46.2,20.4,46,20.4L46,20.4z"/>
	<path d="M49.3,12.6c-0.6,0-1.1-0.1-1.6-0.4S47,11.5,47,11c0-0.5,0.2-0.9,0.6-1.3s0.9-0.6,1.6-0.6c0.6,0,1.1,0.2,1.5,0.5
		s0.7,0.7,0.7,1.3c0,0.5-0.2,0.9-0.6,1.2S49.9,12.6,49.3,12.6L49.3,12.6z M49.3,20.5c-0.8,0-1.4,0-1.6,0c-0.2,0-0.3-0.1-0.4-0.1
		s-0.1-0.2-0.1-0.4c-0.1-0.5-0.1-1.5-0.1-3s0.1-2.5,0.2-3c0-0.2,0.1-0.4,0.3-0.4c0.4-0.1,1-0.2,1.8-0.2c0.6,0,1.1,0,1.5,0.1
		c0.2,0,0.3,0.1,0.3,0.1s0.1,0.1,0.1,0.2c0.1,1.6,0.2,3.6,0.1,6c0,0.3,0,0.4-0.1,0.5s-0.2,0.1-0.4,0.2C50.6,20.4,50,20.5,49.3,20.5
		L49.3,20.5z"/>
	<path d="M55.2,20.4c-0.4,0-0.9,0-1.6-0.1c-0.2,0-0.3-0.1-0.3-0.1S53.1,20,53,19.9c-0.1-1.1-0.2-2.1-0.2-3c0-0.2-0.1-0.3-0.3-0.3
		c-0.1,0-0.2-0.1-0.3-0.3C52.1,15.8,52,15.4,52,15c0-0.3,0-0.6,0-1c0.1-0.3,0.1-0.4,0.2-0.4c0.5,0,0.8-0.1,0.8-0.4
		c0-0.9,0.3-1.6,0.8-2.1s1.3-0.8,2.1-0.8c1,0,2,0.1,2.9,0.3c0.1,0,0.2,0,0.2,0.1s0.1,0.1,0.1,0.1s0.1,0.1,0.1,0.2
		c0,0.6-0.1,1.2-0.2,1.8C59,13,59,13.1,58.9,13.1c0,0-0.1,0-0.1,0c0,0-0.2,0-0.5,0s-0.5,0-0.6,0c-0.3,0-0.4,0.1-0.4,0.3
		c0,0.2,0.1,0.3,0.3,0.3c0.2,0,0.3,0,0.5,0c0.2,0,0.3,0.1,0.3,0.3c0,0.1,0,0.3,0,0.5s0,0.5,0,0.6c0,0.4,0,0.8-0.1,1.1
		c0,0.2-0.1,0.2-0.2,0.3s-0.3,0.1-0.7,0.1c-0.2,0-0.3,0-0.4,0.1s-0.1,0.2-0.1,0.3c0.2,1.6,0.2,2.6,0.2,3c0,0.3-0.1,0.4-0.2,0.4
		C56.6,20.4,56,20.4,55.2,20.4L55.2,20.4z"/>
	<path d="M62.5,23.2c-0.6,0-1,0-1.4,0c-0.3,0-0.5-0.1-0.5-0.2c0,0,0-0.1,0.1-0.2s0.2-0.3,0.4-0.6s0.3-0.6,0.5-0.9
		c0.2-0.3,0.2-0.5,0.2-0.7c0-0.2,0-0.4-0.1-0.7c-0.3-0.8-0.8-2-1.5-3.6s-1.1-2.5-1.2-2.7c0-0.1,0-0.2,0.2-0.2c0,0,0.1,0,0.1,0
		c0.1,0,0.6,0,1.4,0c1,0,1.7,0,2.2,0c0.1,0,0.2,0,0.2,0.1s0.1,0.1,0.1,0.3c0.1,0.5,0.2,1,0.4,1.4s0.3,0.7,0.4,0.7
		c0.1,0,0.2-0.2,0.4-0.7s0.3-1,0.4-1.5c0-0.1,0.1-0.1,0.1-0.2s0.1-0.1,0.1-0.1s0.1,0,0.2,0c0.4,0,1-0.1,1.9-0.1c0.4,0,1,0,1.6,0.1
		c0.3,0,0.4,0.2,0.3,0.4c-0.7,1.6-1.6,3.5-2.6,5.6c-0.5,1-1,2.1-1.4,3.3c-0.1,0.3-0.2,0.4-0.4,0.4C63.8,23.2,63.2,23.2,62.5,23.2
		L62.5,23.2z"/>
	<path d="M68.9,20.8c-0.4,0-0.8-0.2-1.1-0.5s-0.5-0.8-0.5-1.3c0-0.5,0.2-0.8,0.5-1.1s0.7-0.4,1.2-0.4c0.4,0,0.8,0.2,1.2,0.5
		s0.5,0.7,0.5,1.1c0,0.6-0.1,1.1-0.4,1.3S69.4,20.8,68.9,20.8L68.9,20.8z"/>
	<path d="M73.6,20.4c-0.8,0-1.3,0-1.7,0s-0.5-0.1-0.7-0.1c-0.1-0.1-0.2-0.2-0.1-0.3s0.1-0.4,0.2-0.8c1.3-4.6,2.1-7.3,2.4-8.1
		c0.1-0.2,0.1-0.3,0.2-0.3s0.2-0.1,0.4-0.1c0.5,0,1.2-0.1,2-0.1c0.9,0,1.5,0,1.9,0.1c0.3,0,0.5,0.1,0.6,0.3c0.3,0.4,0.7,1.7,1.4,3.9
		s1.1,3.6,1.4,4.3c0.2,0.7,0.1,1-0.2,1.1c-0.3,0.1-0.9,0.1-1.9,0.1c-0.5,0-0.9,0-1.2,0c-0.2,0-0.4-0.1-0.5-0.2s-0.2-0.5-0.3-1
		c0-0.1-0.1-0.2-0.3-0.2s-0.5,0-0.9,0c-0.4,0-0.7,0-0.8,0.1s-0.2,0.1-0.2,0.2c-0.1,0.2-0.1,0.4-0.2,0.6s-0.1,0.4-0.2,0.4
		s-0.3,0.1-0.5,0.1h-0.1c0,0-0.1,0-0.1,0s-0.1,0-0.2,0L73.6,20.4L73.6,20.4z M76.3,16.2c0.1,0,0.2,0,0.2,0s0.1,0,0.1-0.1
		s0.1-0.1,0.1-0.2c-0.1-1-0.1-1.8-0.3-2.3c0-0.1-0.1-0.1-0.2-0.1s-0.2,0-0.2,0.1c-0.1,0.6-0.2,1.4-0.3,2.4c0,0.1,0,0.2,0.1,0.2
		S76,16.2,76.3,16.2L76.3,16.2L76.3,16.2z"/>
	<path d="M83.7,20.4c-0.3,0-0.5,0-0.6,0c-0.4,0-0.5-0.2-0.5-0.5l-0.1-5.4c0-0.5,0-1,0-1.5s0-0.9,0-1.2s0-0.5,0-0.5
		c0-0.2,0.1-0.4,0.2-0.5s0.4-0.1,0.8-0.1l1.5,0c0.4,0,0.8,0,1.2,0.1c0.3,0,0.5,0.1,0.6,0.2s0.1,0.3,0.1,0.6c0.1,2.4,0.1,4,0.1,4.7
		v2.7c0,0.5,0,0.9,0,1c0,0.2-0.1,0.3-0.2,0.4s-0.3,0.1-0.6,0.1L83.7,20.4L83.7,20.4z"/>
</g>
</svg>
